<?xml version="1.0" encoding="UTF-8"?>
<!DOCTYPE svg PUBLIC "-//W3C//DTD SVG 1.1//EN" "http://www.w3.org/Graphics/SVG/1.1/DTD/svg11.dtd">
<svg xmlns="http://www.w3.org/2000/svg" version="1.1" width="50px" height="50px" style="shape-rendering:geometricPrecision; text-rendering:geometricPrecision; image-rendering:optimizeQuality; fill-rule:evenodd; clip-rule:evenodd" xmlns:xlink="http://www.w3.org/1999/xlink">
<g><path style="opacity:0.988" fill="#fefffe" d="M 3.5,3.5 C 17.5,3.5 31.5,3.5 45.5,3.5C 45.5,17.5 45.5,31.5 45.5,45.5C 31.5,45.5 17.5,45.5 3.5,45.5C 3.5,31.5 3.5,17.5 3.5,3.5 Z M 5.5,5.5 C 18.1667,5.5 30.8333,5.5 43.5,5.5C 43.5,18.1667 43.5,30.8333 43.5,43.5C 30.8333,43.5 18.1667,43.5 5.5,43.5C 5.5,30.8333 5.5,18.1667 5.5,5.5 Z"/></g>
<g><path style="opacity:0.728" fill="#fefffe" d="M 23.5,8.5 C 29.1667,8.5 34.8333,8.5 40.5,8.5C 40.8288,14.2055 40.4954,19.8722 39.5,25.5C 38.6735,21.5408 38.1735,17.5408 38,13.5C 31.5,20 25,26.5 18.5,33C 17.552,33.4828 16.552,33.6495 15.5,33.5C 15.3505,32.448 15.5172,31.448 16,30.5C 22.5,24 29,17.5 35.5,11C 31.0442,11.1018 27.0442,10.2684 23.5,8.5 Z"/></g>
</svg>
