<?xml version="1.0" encoding="UTF-8"?>
<!DOCTYPE svg PUBLIC "-//W3C//DTD SVG 1.1//EN" "http://www.w3.org/Graphics/SVG/1.1/DTD/svg11.dtd">
<svg xmlns="http://www.w3.org/2000/svg" version="1.1" width="640px" height="640px" style="shape-rendering:geometricPrecision; text-rendering:geometricPrecision; image-rendering:optimizeQuality; fill-rule:evenodd; clip-rule:evenodd" xmlns:xlink="http://www.w3.org/1999/xlink">
<g><path style="opacity:0.754" fill="#a81737" d="M 298.5,37.5 C 300.017,37.5106 301.184,38.1772 302,39.5C 303.719,43.9133 303.219,48.0799 300.5,52C 303.238,54.2041 303.905,56.8707 302.5,60C 304.572,61.4702 305.906,63.4702 306.5,66C 305.873,72.1934 305.873,78.5267 306.5,85C 306.05,86.2853 305.383,87.452 304.5,88.5C 305.711,89.8745 306.711,91.3745 307.5,93C 306.371,96.3294 305.371,99.6627 304.5,103C 308.502,106.974 310.002,111.807 309,117.5C 305.903,118.289 305.736,119.456 308.5,121C 304.109,123.631 303.443,126.964 306.5,131C 305.956,133.4 305.289,135.733 304.5,138C 305.258,139.364 304.758,140.531 303,141.5C 302.667,141.167 302.333,140.833 302,140.5C 301.517,141.448 301.351,142.448 301.5,143.5C 299.396,143.799 297.396,143.466 295.5,142.5C 292.913,141.111 290.579,139.278 288.5,137C 288.833,136.667 289.167,136.333 289.5,136C 288.313,134.981 287.313,133.814 286.5,132.5C 287.975,129.755 287.309,127.588 284.5,126C 285.167,125.667 285.833,125.333 286.5,125C 284.167,122.667 281.833,120.333 279.5,118C 280.672,117.581 281.672,116.915 282.5,116C 282.726,111.557 281.059,107.724 277.5,104.5C 279.645,103.318 279.645,101.818 277.5,100C 279.387,99.8374 280.887,100.671 282,102.5C 282.5,102 283,101.5 283.5,101C 281.973,99.3067 280.64,97.4734 279.5,95.5C 280.5,94.6667 281.5,93.8333 282.5,93C 280.824,91.8231 279.491,90.3231 278.5,88.5C 279.716,87.9041 281.049,87.7374 282.5,88C 281.541,85.547 280.208,82.8804 278.5,80C 278.99,78.018 279.99,76.3513 281.5,75C 279.833,72.6667 278.167,70.3333 276.5,68C 278.367,67.2888 279.867,67.7888 281,69.5C 281.167,69.1667 281.333,68.8333 281.5,68.5C 280.359,67.5745 280.359,66.7412 281.5,66C 279.403,64.3537 277.736,62.3537 276.5,60C 278.345,60.7827 280.345,61.116 282.5,61C 280.833,59.3333 279.167,57.6667 277.5,56C 279.884,54.5908 281.217,52.9241 281.5,51C 280.956,50.2828 280.289,49.7828 279.5,49.5C 279.196,48.8501 278.863,48.1835 278.5,47.5C 279.167,47.1667 279.833,46.8333 280.5,46.5C 274.955,39.5887 275.622,38.922 282.5,44.5C 282.126,43.229 282.792,42.0623 284.5,41C 282.874,38.3723 280.874,36.039 278.5,34C 281.953,35.9863 285.453,37.4863 289,38.5C 291.56,34.5774 294.226,34.9107 297,39.5C 297.717,38.9558 298.217,38.2891 298.5,37.5 Z M 280.5,104.5 C 281.289,104.783 281.956,105.283 282.5,106C 281.184,106.528 280.517,106.028 280.5,104.5 Z"/></g>
<g><path style="opacity:0.008" fill="#a81737" d="M 298.5,37.5 C 297.833,36.1667 297.833,36.1667 298.5,37.5 Z"/></g>
<g><path style="opacity:0.752" fill="#a81737" d="M 407.5,160.5 C 406.078,160.709 404.745,161.209 403.5,162C 400.756,167.403 397.256,167.57 393,162.5C 391.309,159.967 389.809,157.3 388.5,154.5C 389.859,152.694 389.525,151.194 387.5,150C 389.047,149.667 390.38,150.167 391.5,151.5C 393.645,150.318 393.645,148.818 391.5,147C 391.833,146.667 392.167,146.333 392.5,146C 389.175,144.386 388.842,142.386 391.5,140C 390.692,139.692 390.025,139.192 389.5,138.5C 391.441,136.684 392.108,134.684 391.5,132.5C 393.078,131.702 394.744,131.202 396.5,131C 394.408,130.047 394.075,128.714 395.5,127C 393.675,125.534 393.175,123.701 394,121.5C 394.667,122.167 395.333,122.833 396,123.5C 398.518,121.318 399.685,118.818 399.5,116C 397.536,114.549 396.203,112.716 395.5,110.5C 399.204,113.562 401.204,112.562 401.5,107.5C 402.167,106.833 402.833,106.167 403.5,105.5C 403.371,103.784 403.038,102.117 402.5,100.5C 403.609,100.557 404.609,100.89 405.5,101.5C 406.548,103.933 407.214,103.933 407.5,101.5C 408.833,100.833 408.833,100.167 407.5,99.5C 407.5,98.8333 407.167,98.5 406.5,98.5C 405.859,97.5178 405.193,96.5178 404.5,95.5C 405.167,95.1667 405.833,94.8333 406.5,94.5C 404.363,93.2619 403.029,91.4286 402.5,89C 404.387,88.8374 405.887,89.6707 407,91.5C 408.5,90.6667 409.667,89.5 410.5,88C 409.167,87 409.167,86 410.5,85C 409.117,83.7292 408.117,82.2292 407.5,80.5C 409.012,78.8085 410.678,77.9752 412.5,78C 412.022,76.6974 411.355,75.5307 410.5,74.5C 412.312,75.3482 413.812,75.3482 415,74.5C 414.852,73.175 415.018,72.0084 415.5,71C 412.03,68.8771 412.03,67.7105 415.5,67.5C 416.238,69.7602 417.238,69.9269 418.5,68C 417.934,67.0053 417.267,66.172 416.5,65.5C 413.806,62.7061 414.306,61.7061 418,62.5C 418.617,61.5509 418.451,60.7175 417.5,60C 418.672,59.5814 419.672,58.9147 420.5,58C 418.993,57.1627 418.493,55.9961 419,54.5C 420.073,55.2797 421.24,55.113 422.5,54C 422.381,52.8552 422.048,51.6885 421.5,50.5C 424.119,50.0026 426.953,50.0026 430,50.5C 431.824,49.2513 431.657,48.0847 429.5,47C 430.167,46.8333 430.833,46.6667 431.5,46.5C 433.944,47.7669 436.277,49.2669 438.5,51C 439.249,54.6511 438.915,58.3177 437.5,62C 438.5,63.6667 439.5,65.3333 440.5,67C 439.167,68.3333 439.167,69.6667 440.5,71C 440.097,73.6408 439.097,75.9741 437.5,78C 438.86,79.9376 438.527,81.6043 436.5,83C 437.128,85.8184 438.128,88.4851 439.5,91C 439.241,92.2613 438.574,93.2613 437.5,94C 437.959,95.9427 436.959,97.276 434.5,98C 435.982,100.592 435.648,102.925 433.5,105C 436.194,107.653 437.027,110.82 436,114.5C 434.333,115.833 432.667,115.833 431,114.5C 430.458,117.798 430.958,120.965 432.5,124C 432.244,127.076 432.077,130.242 432,133.5C 430.667,134.833 429.333,134.833 428,133.5C 428,135.5 428,137.5 428,139.5C 426.989,140.337 425.822,140.67 424.5,140.5C 424.649,141.552 424.483,142.552 424,143.5C 422.5,144.333 421.333,145.5 420.5,147C 419.552,147.483 418.552,147.649 417.5,147.5C 416.618,150.156 415.285,152.656 413.5,155C 411.687,154.954 410.021,155.12 408.5,155.5C 406.576,156.965 406.243,158.632 407.5,160.5 Z M 421.5,59.5 C 422.289,59.7828 422.956,60.2828 423.5,61C 422.184,61.5281 421.517,61.0281 421.5,59.5 Z M 405.5,101.5 C 406.167,101.5 406.833,101.5 407.5,101.5C 407.214,103.933 406.548,103.933 405.5,101.5 Z M 403.5,105.5 C 405.028,105.517 405.528,106.184 405,107.5C 404.283,106.956 403.783,106.289 403.5,105.5 Z"/></g>
<g><path style="opacity:0.016" fill="#a81737" d="M 279.5,49.5 C 278.833,50.1667 278.833,50.1667 279.5,49.5 Z"/></g>
<g><path style="opacity:0.016" fill="#a81737" d="M 421.5,50.5 C 420.833,49.1667 420.833,49.1667 421.5,50.5 Z"/></g>
<g><path style="opacity:0.009" fill="#a81737" d="M 416.5,65.5 C 416.672,66.4916 416.338,67.1583 415.5,67.5C 413.969,66.0755 414.302,65.4088 416.5,65.5 Z"/></g>
<g><path style="opacity:0.823" fill="#a81737" d="M 159.5,67.5 C 159.56,66.9569 159.893,66.6236 160.5,66.5C 161.814,67.3128 162.981,68.3128 164,69.5C 166.6,68.6933 168.934,69.36 171,71.5C 174.869,71.5178 178.203,73.1845 181,76.5C 182.919,80.3812 184.752,84.2145 186.5,88C 184.291,88.957 184.457,90.1236 187,91.5C 188.309,93.6864 188.476,95.8531 187.5,98C 190.887,101.648 191.887,105.815 190.5,110.5C 192.59,110.45 193.923,111.45 194.5,113.5C 193.947,115.727 193.947,118.061 194.5,120.5C 199.151,121.174 200.651,123.841 199,128.5C 198.13,129.108 197.63,129.941 197.5,131C 199.147,133.973 201.147,136.64 203.5,139C 202.899,140.605 201.899,141.938 200.5,143C 201.223,147.115 203.223,150.449 206.5,153C 206.057,157.043 205.723,161.043 205.5,165C 207.259,167.775 208.592,170.775 209.5,174C 208.942,177.195 208.608,180.361 208.5,183.5C 209.383,184.548 210.05,185.715 210.5,187C 208.935,188.667 207.269,190.333 205.5,192C 204.5,192.667 203.5,192.667 202.5,192C 199.886,188.71 196.719,186.21 193,184.5C 192.707,182.075 191.541,180.242 189.5,179C 189.833,178.667 190.167,178.333 190.5,178C 185.753,175.432 182.753,171.599 181.5,166.5C 179.897,166.688 178.563,166.188 177.5,165C 177.888,163.192 177.888,161.525 177.5,160C 176.584,159.626 175.75,159.126 175,158.5C 172.898,154.071 170.398,149.905 167.5,146C 168.517,144.951 168.684,143.784 168,142.5C 163.899,139.965 161.565,136.299 161,131.5C 158.377,129.842 156.544,127.508 155.5,124.5C 155.709,123.914 156.043,123.414 156.5,123C 154.114,122.716 153.448,121.716 154.5,120C 148.953,116.738 146.12,111.904 146,105.5C 141.328,100.934 137.828,96.1008 135.5,91C 137.387,90.8374 138.887,91.6707 140,93.5C 140.5,93 141,92.5 141.5,92C 139.473,90.6043 139.14,88.9376 140.5,87C 138.964,85.4006 138.464,83.5672 139,81.5C 140.984,83.3029 142.984,84.3029 145,84.5C 147.113,82.7289 146.947,81.2289 144.5,80C 145,79.5 145.5,79 146,78.5C 147.362,79.9247 148.862,80.758 150.5,81C 148.027,79.075 148.027,77.2417 150.5,75.5C 151.167,76.1667 151.833,76.8333 152.5,77.5C 152.489,76.5585 152.989,75.8919 154,75.5C 154.945,75.9054 155.612,76.572 156,77.5C 156.374,76.5838 156.874,75.7504 157.5,75C 155.993,74.1627 155.493,72.9961 156,71.5C 158.621,71.2173 161.121,71.7173 163.5,73C 162.023,71.1879 160.69,69.3545 159.5,67.5 Z"/></g>
<g><path style="opacity:0.004" fill="#a81737" d="M 410.5,74.5 C 409.833,73.1667 409.833,73.1667 410.5,74.5 Z"/></g>
<g><path style="opacity:0.012" fill="#a81737" d="M 406.5,79.5 C 405.833,78.1667 405.833,78.1667 406.5,79.5 Z"/></g>
<g><path style="opacity:0.027" fill="#a81737" d="M 406.5,79.5 C 407.167,79.5 407.5,79.8333 407.5,80.5C 407.167,80.1667 406.833,79.8333 406.5,79.5 Z"/></g>
<g><path style="opacity:0.021" fill="#a81737" d="M 406.5,98.5 C 407.167,98.5 407.5,98.8333 407.5,99.5C 407.5,100.167 407.5,100.833 407.5,101.5C 406.833,101.5 406.167,101.5 405.5,101.5C 405.263,100.209 405.596,99.209 406.5,98.5 Z"/></g>
<g><path style="opacity:0.008" fill="#a81737" d="M 402.5,100.5 C 401.833,99.1667 401.833,99.1667 402.5,100.5 Z"/></g>
<g><path style="opacity:0.004" fill="#a81737" d="M 400.5,104.5 C 401.833,105.167 401.833,105.167 400.5,104.5 Z"/></g>
<g><path style="opacity:0.004" fill="#a81737" d="M 401.5,107.5 C 400.833,106.167 400.833,106.167 401.5,107.5 Z"/></g>
<g><path style="opacity:0.008" fill="#a81737" d="M 395.5,110.5 C 394.833,109.167 394.833,109.167 395.5,110.5 Z"/></g>
<g><path style="opacity:0.729" fill="#a81737" d="M 507.5,168.5 C 508.496,168.414 509.329,168.748 510,169.5C 510.085,167.915 510.251,166.582 510.5,165.5C 512.059,166.074 513.559,166.74 515,167.5C 514.613,164.059 513.113,161.059 510.5,158.5C 511.985,157.828 513.151,158.494 514,160.5C 514.624,158.536 514.124,156.869 512.5,155.5C 513.557,155.094 514.891,155.094 516.5,155.5C 516.489,153.983 515.823,152.816 514.5,152C 515.738,152.077 516.738,151.911 517.5,151.5C 516.975,150.808 516.308,150.308 515.5,150C 515.25,148.429 515.917,146.929 517.5,145.5C 515.748,142.809 516.248,142.142 519,143.5C 518.591,141.775 518.758,140.108 519.5,138.5C 520.167,139.167 520.833,139.833 521.5,140.5C 522.221,138.314 522.887,136.147 523.5,134C 522.643,133.311 521.977,132.478 521.5,131.5C 522.601,129.606 523.934,128.939 525.5,129.5C 523.793,127.358 522.959,125.025 523,122.5C 523.667,123.833 524.333,123.833 525,122.5C 526.279,124.937 527.779,125.437 529.5,124C 526.898,122.446 525.731,120.28 526,117.5C 527.913,119.187 530.08,119.687 532.5,119C 531.177,118.184 530.511,117.017 530.5,115.5C 531.482,116.141 532.482,116.807 533.5,117.5C 533.5,115.833 533.5,114.167 533.5,112.5C 536.47,113.637 538.636,115.637 540,118.5C 541,115.833 542,115.833 543,118.5C 544.808,118.112 546.475,118.112 548,118.5C 552.298,121.799 555.465,125.966 557.5,131C 555.259,133.428 555.092,135.928 557,138.5C 557.667,141.167 557.667,143.833 557,146.5C 554.745,147.042 552.912,148.209 551.5,150C 555.904,154.312 555.238,156.145 549.5,155.5C 548.453,156.922 548.453,158.422 549.5,160C 549.18,161.653 548.18,162.653 546.5,163C 546.833,163.333 547.167,163.667 547.5,164C 546.776,167.771 544.443,169.437 540.5,169C 541.669,171.007 542.335,173.173 542.5,175.5C 541.167,175.5 539.833,175.5 538.5,175.5C 538.896,180.484 536.562,183.151 531.5,183.5C 531.034,185.201 531.034,186.701 531.5,188C 530.371,190.168 528.871,190.668 527,189.5C 525.455,193.792 523.621,197.792 521.5,201.5C 519.167,200.167 516.833,200.167 514.5,201.5C 514.67,202.822 514.337,203.989 513.5,205C 511.324,205.163 509.491,205.996 508,207.5C 507.667,207.167 507.333,206.833 507,206.5C 504.384,207.81 502.051,209.476 500,211.5C 499.581,210.328 498.915,209.328 498,208.5C 496.817,209.731 495.651,209.731 494.5,208.5C 494.894,206.576 494.227,204.743 492.5,203C 495.156,201.997 496.156,200.33 495.5,198C 496.833,197 498.167,196 499.5,195C 498.044,194.577 497.544,193.744 498,192.5C 500.162,190.801 502.328,189.968 504.5,190C 501.843,187.844 500.51,185.344 500.5,182.5C 501.646,183.145 502.646,183.978 503.5,185C 504.5,185.667 505.5,185.667 506.5,185C 505.785,182.919 504.785,180.753 503.5,178.5C 503.833,178.167 504.167,177.833 504.5,177.5C 505.519,178.687 506.686,179.687 508,180.5C 508.772,179.151 509.939,178.318 511.5,178C 511.157,174.692 509.823,171.525 507.5,168.5 Z M 516.5,155.5 C 518.028,155.517 518.528,156.184 518,157.5C 517.283,156.956 516.783,156.289 516.5,155.5 Z"/></g>
<g><path style="opacity:0.004" fill="#a81737" d="M 530.5,115.5 C 529.833,114.167 529.833,114.167 530.5,115.5 Z"/></g>
<g><path style="opacity:0.004" fill="#a81737" d="M 283.5,129.5 C 284.833,130.167 284.833,130.167 283.5,129.5 Z"/></g>
<g><path style="opacity:0.793" fill="#a81737" d="M 120.5,229.5 C 122.256,233.581 120.923,235.081 116.5,234C 116,233.5 115.5,233 115,232.5C 113.43,233.358 111.763,234.025 110,234.5C 108.296,234.026 106.462,233.859 104.5,234C 102.662,232.16 100.662,230.493 98.5,229C 98.9574,228.586 99.2907,228.086 99.5,227.5C 97.674,224.495 95.0074,222.661 91.5,222C 91.9574,221.586 92.2907,221.086 92.5,220.5C 91.1482,219.476 89.8149,218.476 88.5,217.5C 85.7819,217.698 83.7819,216.198 82.5,213C 78.0414,210.465 74.5414,207.631 72,204.5C 70.4138,202.33 69.0804,199.996 68,197.5C 66.8525,198.458 65.8525,198.125 65,196.5C 65,195.167 65,193.833 65,192.5C 61.1513,189.646 57.318,186.813 53.5,184C 51.6063,182.921 51.273,181.587 52.5,180C 49.4085,176.895 46.0751,174.229 42.5,172C 43.1667,170.333 43.8333,168.667 44.5,167C 44,166.5 43.5,166 43,165.5C 41.6667,166.833 40.3333,166.833 39,165.5C 37.8333,163.667 36.6667,161.833 35.5,160C 36.5,159 37.5,158 38.5,157C 37.1667,156 35.8333,155 34.5,154C 37.1071,153.363 39.4404,152.196 41.5,150.5C 42.6869,151.894 43.3535,151.727 43.5,150C 42.7282,148.779 41.7282,147.779 40.5,147C 42.8878,146.135 44.3878,146.968 45,149.5C 45.6708,148.748 46.5041,148.414 47.5,148.5C 44.6321,143.519 45.1321,142.853 49,146.5C 50.3139,145.687 51.4805,144.687 52.5,143.5C 53.5984,144.615 54.7651,144.615 56,143.5C 56.9503,144.022 57.7836,144.689 58.5,145.5C 62.2539,145.139 65.0872,146.806 67,150.5C 67.3333,150.167 67.6667,149.833 68,149.5C 74.2355,154.231 78.7355,160.231 81.5,167.5C 85.5013,172.28 89.8347,176.78 94.5,181C 94.1667,181.333 93.8333,181.667 93.5,182C 96.3643,184.904 98.8643,188.071 101,191.5C 102.947,198.749 107.114,203.582 113.5,206C 111.053,207.229 110.887,208.729 113,210.5C 114.011,211.337 115.178,211.67 116.5,211.5C 116.617,213.484 115.95,215.15 114.5,216.5C 115.32,218.111 116.654,218.778 118.5,218.5C 118.617,221.558 118.617,224.725 118.5,228C 118.836,229.03 119.503,229.53 120.5,229.5 Z M 47.5,148.5 C 48.2891,148.783 48.9558,149.283 49.5,150C 48.184,150.528 47.5173,150.028 47.5,148.5 Z"/></g>
<g><path style="opacity:0.004" fill="#a81737" d="M 407.5,160.5 C 408.833,161.167 408.833,161.167 407.5,160.5 Z"/></g>
<g><path style="opacity:0.016" fill="#a81737" d="M 507.5,168.5 C 506.833,167.167 506.833,167.167 507.5,168.5 Z"/></g>
<g><path style="opacity:0.94" fill="#a81637" d="M 318.5,175.5 C 318.833,176.5 319.5,177.167 320.5,177.5C 321.167,178.833 321.833,178.833 322.5,177.5C 324.366,176.986 326.2,176.32 328,175.5C 329.974,177.285 331.974,178.285 334,178.5C 334.127,177.223 333.627,176.057 332.5,175C 332.833,174.5 333.167,174 333.5,173.5C 336.094,174.592 338.261,176.259 340,178.5C 341.888,176.078 343.888,176.078 346,178.5C 346.333,177.833 346.667,177.167 347,176.5C 349.185,177.928 351.185,179.595 353,181.5C 354.284,180.428 354.617,179.095 354,177.5C 356.258,180.035 358.425,180.368 360.5,178.5C 363.254,180.606 366.254,182.272 369.5,183.5C 371.834,182.159 373.501,182.826 374.5,185.5C 377.57,184.604 380.07,185.604 382,188.5C 382.333,188.167 382.667,187.833 383,187.5C 386.46,189.068 389.96,190.401 393.5,191.5C 393.369,190.761 393.536,190.094 394,189.5C 396.638,192.317 399.638,194.65 403,196.5C 403.464,195.906 403.631,195.239 403.5,194.5C 406.532,195.927 409.532,196.927 412.5,197.5C 414.476,199.397 416.31,201.397 418,203.5C 419.268,203.384 420.602,203.051 422,202.5C 426.9,207.951 432.4,210.784 438.5,211C 441.127,213.78 443.627,216.614 446,219.5C 446.333,219.167 446.667,218.833 447,218.5C 449.601,221.596 452.767,222.763 456.5,222C 457.748,226.581 460.748,228.914 465.5,229C 469.999,233.304 474.499,237.471 479,241.5C 479.333,240.833 479.667,240.167 480,239.5C 482.617,242.256 484.95,245.256 487,248.5C 492.666,249.462 497.166,252.629 500.5,258C 503.272,258.271 504.938,259.771 505.5,262.5C 511.002,265.827 515.502,270.16 519,275.5C 519.333,275.167 519.667,274.833 520,274.5C 520.969,276.734 522.302,278.734 524,280.5C 524.333,280.167 524.667,279.833 525,279.5C 530.855,284.079 536.355,288.912 541.5,294C 542.289,296.365 543.456,298.532 545,300.5C 553.723,304.871 559.723,311.204 563,319.5C 566.165,320.289 568.665,322.455 570.5,326C 573.943,326.221 574.276,327.221 571.5,329C 577.681,333.83 583.514,338.996 589,344.5C 588.954,346.313 589.12,347.979 589.5,349.5C 588.619,350.971 587.286,351.804 585.5,352C 587,355.833 585.833,357 582,355.5C 578.578,359.801 575.911,364.134 574,368.5C 570.833,370.333 568.333,372.833 566.5,376C 565.552,376.483 564.552,376.649 563.5,376.5C 563.833,379.5 562.5,380.833 559.5,380.5C 559.477,383.457 558.477,385.957 556.5,388C 558.993,389.583 558.826,391.083 556,392.5C 555.586,392.043 555.086,391.709 554.5,391.5C 553.472,393.361 551.972,394.695 550,395.5C 549.691,396.766 549.191,397.933 548.5,399C 544.589,399.783 542.256,402.116 541.5,406C 539.579,406.36 537.912,407.194 536.5,408.5C 535.914,408.291 535.414,407.957 535,407.5C 535.51,409.38 535.343,411.213 534.5,413C 532.152,413.346 530.319,414.513 529,416.5C 528.667,416.167 528.333,415.833 528,415.5C 526.954,417.09 525.787,418.59 524.5,420C 523.216,420.684 522.049,420.517 521,419.5C 520.667,420.833 520.333,422.167 520,423.5C 514.624,427.42 509.791,431.92 505.5,437C 501.068,437.842 497.735,440.176 495.5,444C 494.128,444.402 492.795,444.902 491.5,445.5C 489.659,448.429 487.326,450.929 484.5,453C 481.36,454.716 478.027,456.049 474.5,457C 476,460.833 474.833,462 471,460.5C 469.247,461.627 467.413,462.627 465.5,463.5C 464.171,467.833 461.837,468.5 458.5,465.5C 457.651,470.726 455.151,471.726 451,468.5C 450.293,470.081 449.46,471.581 448.5,473C 446.154,472.208 443.821,472.375 441.5,473.5C 442.026,476.808 440.693,478.974 437.5,480C 434.316,479.851 430.983,480.184 427.5,481C 429,484.833 427.833,486 424,484.5C 420.336,487.25 416.336,488.25 412,487.5C 411.727,489.101 411.227,490.601 410.5,492C 407.249,491.581 404.082,491.414 401,491.5C 397.606,494.03 393.939,496.03 390,497.5C 387.922,496.057 387.089,496.724 387.5,499.5C 385.304,499.59 383.137,499.923 381,500.5C 376.719,499.202 372.552,498.536 368.5,498.5C 367.738,499.628 367.071,500.795 366.5,502C 362.985,503.456 359.485,503.622 356,502.5C 352.085,505.2 348.419,504.867 345,501.5C 343.325,502.595 342.158,504.095 341.5,506C 338.743,507.953 336.243,507.787 334,505.5C 331.333,508.167 328.667,508.167 326,505.5C 322.936,506.237 319.936,506.571 317,506.5C 315.237,506.025 313.57,505.358 312,504.5C 311.174,506.405 310.007,506.739 308.5,505.5C 308.709,504.914 309.043,504.414 309.5,504C 306.391,503.356 303.557,502.189 301,500.5C 299.839,503.554 297.839,504.22 295,502.5C 291.31,504.732 287.476,504.899 283.5,503C 282.971,500.571 281.637,498.738 279.5,497.5C 277.571,498.38 275.737,499.38 274,500.5C 272.739,500.241 271.739,499.574 271,498.5C 268.054,501.2 265.554,500.7 263.5,497C 258.129,495.265 252.796,493.432 247.5,491.5C 245.902,492.485 244.235,492.651 242.5,492C 243.815,490.605 243.481,489.605 241.5,489C 238.57,487.341 235.57,487.008 232.5,488C 231.667,487.167 230.833,486.333 230,485.5C 227.21,486.782 225.043,485.948 223.5,483C 223.833,482.667 224.167,482.333 224.5,482C 218.498,482.494 213.831,479.994 210.5,474.5C 206.938,475.569 203.938,474.569 201.5,471.5C 198.249,472.959 195.915,471.959 194.5,468.5C 192.922,467.702 191.256,467.202 189.5,467C 188.167,466.333 188.167,465.667 189.5,465C 182.148,461.494 175.148,457.327 168.5,452.5C 166.802,448.812 164.135,447.645 160.5,449C 157.003,443.835 152.336,440.168 146.5,438C 146.324,436.308 145.824,434.808 145,433.5C 144.667,433.833 144.333,434.167 144,434.5C 137.721,428.765 131.554,422.931 125.5,417C 124.552,416.517 123.552,416.351 122.5,416.5C 122.649,415.448 122.483,414.448 122,413.5C 120.951,414.517 119.784,414.684 118.5,414C 117.034,412.448 116.034,410.614 115.5,408.5C 111.656,407.166 108.489,404.832 106,401.5C 105.383,400.551 105.549,399.718 106.5,399C 101.986,395.909 97.653,392.575 93.5,389C 94.7376,389.077 95.7376,388.911 96.5,388.5C 93.5413,387.464 90.8747,385.964 88.5,384C 88.8333,383.667 89.1667,383.333 89.5,383C 86.4992,383.094 84.4992,381.761 83.5,379C 84.1667,378.667 84.8333,378.333 85.5,378C 81.5368,375.69 78.0368,372.857 75,369.5C 74.7265,367.671 73.8932,366.171 72.5,365C 73.6734,361.89 73.1734,361.723 71,364.5C 66.6029,358.096 61.4362,352.262 55.5,347C 55.8333,346.667 56.1667,346.333 56.5,346C 55.552,345.517 54.552,345.351 53.5,345.5C 53.4435,341.495 52.1101,337.995 49.5,335C 51.5321,334.834 53.3654,333.667 55,331.5C 55.4094,329.305 54.9094,327.305 53.5,325.5C 54.675,325.719 55.675,325.386 56.5,324.5C 55.4937,323.604 55.4937,322.938 56.5,322.5C 57.1924,323.025 57.6924,323.692 58,324.5C 58.6054,322.519 59.6054,322.185 61,323.5C 61.3742,322.584 61.8742,321.75 62.5,321C 60.4376,319.468 59.1043,317.468 58.5,315C 59.9346,315.311 61.2679,315.145 62.5,314.5C 63.4776,314.977 64.3109,315.643 65,316.5C 65.8333,315 67,313.833 68.5,313C 67.1667,312 67.1667,311 68.5,310C 65.9918,305.556 66.4918,305.389 70,309.5C 72.6333,306.815 72.8,304.148 70.5,301.5C 70.8333,301.167 71.1667,300.833 71.5,300.5C 73.2403,302.211 75.2403,303.044 77.5,303C 74.6076,298.931 75.1076,298.097 79,300.5C 79.2633,298.14 78.43,296.14 76.5,294.5C 77,294.167 77.5,293.833 78,293.5C 79.8948,294.689 81.8948,295.689 84,296.5C 83.3539,294.568 82.5206,292.568 81.5,290.5C 83.144,291.366 84.8107,291.866 86.5,292C 85.9415,291.275 85.6082,290.442 85.5,289.5C 86.3655,288.149 87.3655,287.316 88.5,287C 87.5862,285.594 86.9195,284.094 86.5,282.5C 88.3102,283.955 89.9769,283.788 91.5,282C 90.1772,281.184 89.5106,280.017 89.5,278.5C 90.4959,278.414 91.3292,278.748 92,279.5C 92.3076,278.692 92.8076,278.025 93.5,277.5C 94.8139,278.313 95.9805,279.313 97,280.5C 97.5,280 98,279.5 98.5,279C 96.8333,277.333 95.1667,275.667 93.5,274C 95.1261,274.195 96.7928,274.195 98.5,274C 97.0072,272.844 97.1739,272.01 99,271.5C 105.367,275.469 105.867,274.136 100.5,267.5C 100.667,267.167 100.833,266.833 101,266.5C 102.588,268.968 104.422,269.134 106.5,267C 107.641,266.259 107.641,265.425 106.5,264.5C 108.991,263.459 108.991,262.626 106.5,262C 107.793,261.51 109.127,261.343 110.5,261.5C 110.833,262.5 111.5,263.167 112.5,263.5C 112.5,262.833 112.5,262.167 112.5,261.5C 113.833,260.833 113.833,260.167 112.5,259.5C 112.167,258.5 111.5,257.833 110.5,257.5C 111.705,256.314 113.039,256.314 114.5,257.5C 120.146,257.415 120.813,255.582 116.5,252C 117.253,250.513 118.086,250.346 119,251.5C 120.333,248.833 121.667,248.833 123,251.5C 124.582,250.04 125.915,248.373 127,246.5C 127.333,246.833 127.667,247.167 128,247.5C 126.703,242.262 127.703,241.596 131,245.5C 131.75,244.874 132.584,244.374 133.5,244C 132.289,243.107 132.289,242.274 133.5,241.5C 134.72,240.289 135.887,240.289 137,241.5C 136.667,239.833 136.333,238.167 136,236.5C 137,237.5 138,238.5 139,239.5C 140,238.167 141,238.167 142,239.5C 140.924,237.713 140.257,235.713 140,233.5C 141.512,234.257 142.846,235.257 144,236.5C 146.113,234.729 145.947,233.229 143.5,232C 144.899,231.405 146.232,231.572 147.5,232.5C 148.251,231.624 148.751,230.624 149,229.5C 149.654,230.696 150.154,230.696 150.5,229.5C 149.121,228.137 149.287,227.137 151,226.5C 151.945,226.905 152.612,227.572 153,228.5C 153.807,224.603 155.474,223.937 158,226.5C 158.5,225.333 159.333,224.5 160.5,224C 159.5,223 158.5,222 157.5,221C 159.745,221.195 161.578,222.362 163,224.5C 163.49,222.455 163.323,220.455 162.5,218.5C 165.232,219.038 167.898,219.038 170.5,218.5C 173.763,217.631 174.096,216.297 171.5,214.5C 171.808,213.692 172.308,213.025 173,212.5C 174.503,212.835 175.836,212.835 177,212.5C 177.317,210.699 177.984,210.366 179,211.5C 180.067,210.809 181.234,210.309 182.5,210C 181.304,209.346 181.304,208.846 182.5,208.5C 184.169,209.89 185.836,210.223 187.5,209.5C 186.289,207.578 184.956,205.745 183.5,204C 186.305,204.607 188.805,205.441 191,206.5C 190.107,204.709 189.274,202.875 188.5,201C 190.047,200.667 191.38,201.167 192.5,202.5C 192.911,201.738 193.077,200.738 193,199.5C 194.815,201.405 196.815,203.072 199,204.5C 199.617,203.551 199.451,202.718 198.5,202C 199.308,201.692 199.975,201.192 200.5,200.5C 197.672,196.802 198.005,196.135 201.5,198.5C 202.609,195.089 204.275,195.089 206.5,198.5C 207.799,197.91 208.632,196.91 209,195.5C 210,195.833 211,196.167 212,196.5C 212.507,195.004 212.007,193.837 210.5,193C 212.367,192.289 213.867,192.789 215,194.5C 215.464,193.906 215.631,193.239 215.5,192.5C 217.086,191.587 218.586,191.587 220,192.5C 221.32,190.417 222.654,190.751 224,193.5C 225.158,193.002 225.991,192.169 226.5,191C 225.516,189.343 224.516,187.677 223.5,186C 225.367,185.289 226.867,185.789 228,187.5C 230.724,187.224 233.391,187.224 236,187.5C 234.091,181.162 235.424,180.828 240,186.5C 241.705,185.237 243.372,184.903 245,185.5C 245.507,184.004 245.007,182.837 243.5,182C 246.62,181.641 249.12,182.808 251,185.5C 254.18,183.293 254.014,181.126 250.5,179C 253.642,179.088 256.142,180.588 258,183.5C 260.158,182.95 260.658,181.95 259.5,180.5C 260.239,180.631 260.906,180.464 261.5,180C 260.549,179.282 260.383,178.449 261,177.5C 264.892,180.056 266.558,179.056 266,174.5C 268.096,176.266 270.429,177.599 273,178.5C 273.464,177.906 273.631,177.239 273.5,176.5C 275.2,176.374 276.7,175.707 278,174.5C 280.281,175.776 282.281,177.443 284,179.5C 284.165,177.322 283.332,175.489 281.5,174C 284.272,174.052 286.606,175.219 288.5,177.5C 288.677,174.922 289.843,174.922 292,177.5C 293.64,174.037 295.307,174.371 297,178.5C 297.333,177.833 297.667,177.167 298,176.5C 299.398,177.051 300.732,177.384 302,177.5C 302.311,176.258 301.811,175.258 300.5,174.5C 300.833,174.167 301.167,173.833 301.5,173.5C 303.349,174.593 305.016,175.926 306.5,177.5C 306.833,176.833 307.167,176.167 307.5,175.5C 308.5,176.833 309.5,176.833 310.5,175.5C 312.098,177.973 313.598,177.973 315,175.5C 315.974,177.878 316.641,177.544 317,174.5C 317.383,175.056 317.883,175.389 318.5,175.5 Z M 393.5,191.5 C 394.289,191.783 394.956,192.283 395.5,193C 394.184,193.528 393.517,193.028 393.5,191.5 Z M 155.5,227.5 C 157.028,227.517 157.528,228.184 157,229.5C 156.283,228.956 155.783,228.289 155.5,227.5 Z M 114.5,257.5 C 115.289,257.783 115.956,258.283 116.5,259C 115.184,259.528 114.517,259.028 114.5,257.5 Z M 110.5,261.5 C 111.167,261.5 111.833,261.5 112.5,261.5C 112.5,262.167 112.5,262.833 112.5,263.5C 111.5,263.167 110.833,262.5 110.5,261.5 Z"/></g>
<g><path style="opacity:0.008" fill="#a81737" d="M 318.5,174.5 C 319.833,175.167 319.833,175.167 318.5,174.5 Z"/></g>
<g><path style="opacity:0.004" fill="#a81737" d="M 273.5,176.5 C 272.833,175.167 272.833,175.167 273.5,176.5 Z"/></g>
<g><path style="opacity:0.015" fill="#a81737" d="M 322.5,177.5 C 321.833,177.5 321.167,177.5 320.5,177.5C 321.167,174.833 321.833,174.833 322.5,177.5 Z"/></g>
<g><path style="opacity:0.016" fill="#a81737" d="M 258.5,179.5 C 257.833,178.167 257.833,178.167 258.5,179.5 Z"/></g>
<g><path style="opacity:0.004" fill="#a81737" d="M 258.5,179.5 C 259.167,179.5 259.5,179.833 259.5,180.5C 259.167,180.167 258.833,179.833 258.5,179.5 Z"/></g>
<g><path style="opacity:0.004" fill="#a81737" d="M 215.5,192.5 C 214.833,191.167 214.833,191.167 215.5,192.5 Z"/></g>
<g><path style="opacity:0.004" fill="#a81737" d="M 402.5,193.5 C 401.833,192.167 401.833,192.167 402.5,193.5 Z"/></g>
<g><path style="opacity:0.004" fill="#a81737" d="M 402.5,193.5 C 403.167,193.5 403.5,193.833 403.5,194.5C 403.167,194.167 402.833,193.833 402.5,193.5 Z"/></g>
<g><path style="opacity:1" fill="#921533" d="M 358.5,213.5 C 357.85,213.804 357.183,214.137 356.5,214.5C 353.933,212.05 350.933,210.383 347.5,209.5C 346.833,210.167 346.167,210.833 345.5,211.5C 343.563,210.046 341.897,208.379 340.5,206.5C 341.75,206.423 342.583,205.756 343,204.5C 344,205.5 345,206.5 346,207.5C 347.637,206.167 348.471,204.834 348.5,203.5C 352.419,206.323 355.753,209.656 358.5,213.5 Z"/></g>
<g><path style="opacity:1" fill="#8f1532" d="M 308.5,202.5 C 307.5,202.833 306.833,203.5 306.5,204.5C 303.99,204.927 301.657,205.593 299.5,206.5C 298.833,206.833 298.167,207.167 297.5,207.5C 295.208,207.756 293.041,207.423 291,206.5C 290.536,207.094 290.369,207.761 290.5,208.5C 287.534,208.35 284.534,208.35 281.5,208.5C 280.711,208.217 280.044,207.717 279.5,207C 280.833,206.667 282.167,206.333 283.5,206C 283.167,205.667 282.833,205.333 282.5,205C 283.938,204.781 285.271,204.281 286.5,203.5C 285.494,202.604 285.494,201.938 286.5,201.5C 287.826,202.99 289.326,204.324 291,205.5C 292.587,204.273 293.921,204.606 295,206.5C 296.685,202.268 299.185,201.602 302.5,204.5C 302.998,203.397 303.331,202.397 303.5,201.5C 304.803,202.718 305.803,202.385 306.5,200.5C 307.522,200.855 308.189,201.522 308.5,202.5 Z"/></g>
<g><path style="opacity:1" fill="#491024" d="M 306.5,204.5 C 307.754,206.797 306.92,208.13 304,208.5C 302.594,207.586 301.094,206.92 299.5,206.5C 301.657,205.593 303.99,204.927 306.5,204.5 Z"/></g>
<g><path style="opacity:1" fill="#3e0f21" d="M 308.5,202.5 C 312.233,206.445 316.066,206.445 320,202.5C 323.926,204.966 328.093,206.633 332.5,207.5C 328.38,207.251 324.38,207.251 320.5,207.5C 319.522,207.023 318.689,206.357 318,205.5C 316.991,206.658 315.658,207.325 314,207.5C 311.195,207.179 308.695,206.179 306.5,204.5C 306.833,203.5 307.5,202.833 308.5,202.5 Z"/></g>
<g><path style="opacity:0.004" fill="#a81737" d="M 179.5,206.5 C 180.833,207.167 180.833,207.167 179.5,206.5 Z"/></g>
<g><path style="opacity:1" fill="#3d0f20" d="M 297.5,207.5 C 295.393,208.468 293.059,208.802 290.5,208.5C 290.369,207.761 290.536,207.094 291,206.5C 293.041,207.423 295.208,207.756 297.5,207.5 Z"/></g>
<g><path style="opacity:1" fill="#010101" d="M 306.5,204.5 C 308.695,206.179 311.195,207.179 314,207.5C 315.658,207.325 316.991,206.658 318,205.5C 318.689,206.357 319.522,207.023 320.5,207.5C 324.38,207.251 328.38,207.251 332.5,207.5C 333.75,207.423 334.583,206.756 335,205.5C 336.563,208.044 338.063,208.044 339.5,205.5C 340.107,205.624 340.44,205.957 340.5,206.5C 341.897,208.379 343.563,210.046 345.5,211.5C 346.167,210.833 346.833,210.167 347.5,209.5C 350.933,210.383 353.933,212.05 356.5,214.5C 357.183,214.137 357.85,213.804 358.5,213.5C 362.021,215.533 365.688,217.2 369.5,218.5C 370.167,220.5 371.5,221.833 373.5,222.5C 375.662,222.897 376.995,224.231 377.5,226.5C 379.432,225.48 381.432,225.313 383.5,226C 386.65,229.315 389.983,232.482 393.5,235.5C 397.044,240.718 401.378,245.385 406.5,249.5C 408.587,251.599 410.92,253.265 413.5,254.5C 415.776,259.224 417.609,264.224 419,269.5C 420.699,270.406 422.533,270.739 424.5,270.5C 424.5,271.833 424.5,273.167 424.5,274.5C 422.614,277.491 423.28,279.491 426.5,280.5C 426.833,281.167 427.167,281.833 427.5,282.5C 426.09,285.783 427.09,288.117 430.5,289.5C 430.833,290.167 431.167,290.833 431.5,291.5C 431.489,293.017 430.823,294.184 429.5,295C 431.469,296.5 432.802,298.333 433.5,300.5C 433.833,301.167 434.167,301.833 434.5,302.5C 433.709,304.691 433.709,306.691 434.5,308.5C 436.022,309.191 437.022,310.358 437.5,312C 436.704,316.879 436.371,321.712 436.5,326.5C 437.304,327.941 437.971,329.441 438.5,331C 435.908,333.853 435.908,336.686 438.5,339.5C 437.242,341.648 437.242,343.815 438.5,346C 437.692,348.761 436.692,351.428 435.5,354C 437.097,356.026 438.097,358.359 438.5,361C 437.144,362.567 436.477,364.4 436.5,366.5C 433.233,368.045 432.566,370.378 434.5,373.5C 434.674,375.861 435.007,378.194 435.5,380.5C 433.425,380.302 431.425,380.135 429.5,380C 430.554,382.382 431.221,384.882 431.5,387.5C 430.448,387.351 429.448,387.517 428.5,388C 430.037,389.11 430.703,390.61 430.5,392.5C 429.022,392.238 427.689,392.571 426.5,393.5C 427.309,395.071 427.643,396.738 427.5,398.5C 426.5,398.5 425.5,398.5 424.5,398.5C 424.5,399.833 424.5,401.167 424.5,402.5C 423.5,402.5 422.5,402.5 421.5,402.5C 419.718,406.34 418.218,410.34 417,414.5C 415.542,415.747 414.042,415.747 412.5,414.5C 411.453,415.922 411.453,417.422 412.5,419C 411.334,422.152 410.334,425.319 409.5,428.5C 407.516,428.617 405.85,427.95 404.5,426.5C 405.477,431.051 403.477,433.551 398.5,434C 399.337,435.011 399.67,436.178 399.5,437.5C 396.978,438.011 394.645,439.011 392.5,440.5C 391.5,440.5 390.5,440.5 389.5,440.5C 389.5,441.5 389.5,442.5 389.5,443.5C 387.833,443.5 386.167,443.5 384.5,443.5C 384.5,444.5 384.5,445.5 384.5,446.5C 382.638,447.392 380.638,447.559 378.5,447C 379.337,448.011 379.67,449.178 379.5,450.5C 377.139,450.674 374.806,451.007 372.5,451.5C 372.5,453.167 372.5,454.833 372.5,456.5C 369.779,455.859 367.112,455.359 364.5,455C 366.037,456.11 366.703,457.61 366.5,459.5C 366.167,459.5 365.833,459.5 365.5,459.5C 361.832,457.502 359.499,458.502 358.5,462.5C 355.906,463.541 353.406,464.874 351,466.5C 349.779,465.728 348.779,464.728 348,463.5C 347.51,464.793 347.343,466.127 347.5,467.5C 343.738,467.348 340.072,466.681 336.5,465.5C 334.783,466.668 334.116,468.335 334.5,470.5C 327.137,471.149 319.804,470.482 312.5,468.5C 311.051,469.617 309.384,470.284 307.5,470.5C 304.461,469.462 301.461,469.462 298.5,470.5C 294.766,469.592 291.433,467.925 288.5,465.5C 286.547,466.156 284.547,466.489 282.5,466.5C 281.365,464.787 279.698,464.12 277.5,464.5C 275.149,462.256 272.482,461.923 269.5,463.5C 269.607,461.097 268.607,459.264 266.5,458C 262.83,457.452 259.163,456.952 255.5,456.5C 254.852,454.914 254.352,453.247 254,451.5C 253.275,452.059 252.442,452.392 251.5,452.5C 249.208,450.551 246.541,449.551 243.5,449.5C 243.768,447.901 243.434,446.568 242.5,445.5C 239.461,442.46 236.127,439.794 232.5,437.5C 230.495,435.666 228.328,433.999 226,432.5C 225.517,431.552 225.351,430.552 225.5,429.5C 221.626,428.631 218.959,426.297 217.5,422.5C 217.5,421.5 217.5,420.5 217.5,419.5C 215.821,419.715 214.821,419.048 214.5,417.5C 213.537,414.537 211.537,412.537 208.5,411.5C 205.98,404.344 201.98,398.011 196.5,392.5C 197.866,393.202 199.533,393.202 201.5,392.5C 200.345,391.05 198.845,390.05 197,389.5C 195.765,382.305 193.598,375.472 190.5,369C 191.308,368.692 191.975,368.192 192.5,367.5C 190.525,364.391 188.192,361.557 185.5,359C 187.047,358.667 188.38,359.167 189.5,360.5C 189.833,358.833 190.167,357.167 190.5,355.5C 190.299,352.012 189.632,348.679 188.5,345.5C 191.297,342.093 190.964,338.926 187.5,336C 188.416,335.722 189.082,335.222 189.5,334.5C 188.952,332.606 187.952,330.94 186.5,329.5C 186.846,328.304 187.346,328.304 188,329.5C 188.684,328.216 188.517,327.049 187.5,326C 188.574,325.261 189.241,324.261 189.5,323C 188.125,320.685 187.125,318.185 186.5,315.5C 187.391,314.41 188.391,314.41 189.5,315.5C 190.562,314.575 190.562,313.575 189.5,312.5C 190.672,311.295 192.005,311.295 193.5,312.5C 193.86,310.345 193.86,308.345 193.5,306.5C 193.567,305.041 193.234,303.708 192.5,302.5C 193.405,299.018 195.072,296.018 197.5,293.5C 196.465,291.795 196.465,290.128 197.5,288.5C 196.289,286.578 194.956,284.745 193.5,283C 195.417,283.027 197.084,283.861 198.5,285.5C 199.76,283.647 199.76,281.814 198.5,280C 199.094,279.536 199.761,279.369 200.5,279.5C 202.183,278.147 203.516,276.48 204.5,274.5C 206.951,272.104 207.951,269.104 207.5,265.5C 209.167,265.5 210.833,265.5 212.5,265.5C 212.737,264.209 212.404,263.209 211.5,262.5C 210.89,261.609 210.557,260.609 210.5,259.5C 211.833,259.167 213.167,258.833 214.5,258.5C 215.404,257.791 215.737,256.791 215.5,255.5C 216.5,255.5 217.5,255.5 218.5,255.5C 218.737,254.209 218.404,253.209 217.5,252.5C 217.5,251.833 217.167,251.5 216.5,251.5C 216.47,250.503 216.97,249.836 218,249.5C 219.393,250.615 220.893,251.115 222.5,251C 223.273,248.403 224.273,245.903 225.5,243.5C 227.179,242.084 228.846,240.75 230.5,239.5C 230.89,237.792 230.89,236.126 230.5,234.5C 235.13,238.707 236.13,238.041 233.5,232.5C 233.833,232.167 234.167,231.833 234.5,231.5C 236.813,230.162 239.48,230.162 242.5,231.5C 242.5,229.833 242.5,228.167 242.5,226.5C 245.247,226.813 247.914,226.48 250.5,225.5C 249.265,223.684 249.265,222.017 250.5,220.5C 251.713,222.676 253.38,223.009 255.5,221.5C 256.189,219.662 256.522,217.995 256.5,216.5C 258.658,219.33 261.324,219.997 264.5,218.5C 264.054,215.36 262.721,212.693 260.5,210.5C 260.833,210.167 261.167,209.833 261.5,209.5C 263.691,212.043 266.358,213.709 269.5,214.5C 272.187,214.462 272.854,213.462 271.5,211.5C 272,211.167 272.5,210.833 273,210.5C 275.996,209.965 278.829,209.298 281.5,208.5C 284.534,208.35 287.534,208.35 290.5,208.5C 293.059,208.802 295.393,208.468 297.5,207.5C 298.167,207.167 298.833,206.833 299.5,206.5C 301.094,206.92 302.594,207.586 304,208.5C 306.92,208.13 307.754,206.797 306.5,204.5 Z"/></g>
<g><path style="opacity:0.004" fill="#a81737" d="M 435.5,208.5 C 436.833,209.167 436.833,209.167 435.5,208.5 Z"/></g>
<g><path style="opacity:0.004" fill="#a81737" d="M 88.5,217.5 C 87.8333,218.167 87.8333,218.167 88.5,217.5 Z"/></g>
<g><path style="opacity:0.008" fill="#a81737" d="M 162.5,218.5 C 161.833,217.167 161.833,217.167 162.5,218.5 Z"/></g>
<g><path style="opacity:1" fill="#5f1229" d="M 369.5,218.5 C 370.833,218.5 372.167,218.5 373.5,218.5C 373.5,219.833 373.5,221.167 373.5,222.5C 371.5,221.833 370.167,220.5 369.5,218.5 Z"/></g>
<g><path style="opacity:0.006" fill="#a81737" d="M 120.5,229.5 C 120.952,226.326 121.952,225.993 123.5,228.5C 122.675,229.386 121.675,229.719 120.5,229.5 Z"/></g>
<g><path style="opacity:1" fill="#931533" d="M 250.5,220.5 C 249.265,222.017 249.265,223.684 250.5,225.5C 247.914,226.48 245.247,226.813 242.5,226.5C 242.5,228.167 242.5,229.833 242.5,231.5C 239.48,230.162 236.813,230.162 234.5,231.5C 234.167,231.833 233.833,232.167 233.5,232.5C 236.13,238.041 235.13,238.707 230.5,234.5C 230.89,236.126 230.89,237.792 230.5,239.5C 226.37,236.496 224.704,237.829 225.5,243.5C 224.273,245.903 223.273,248.403 222.5,251C 220.893,251.115 219.393,250.615 218,249.5C 216.97,249.836 216.47,250.503 216.5,251.5C 215.852,250.021 215.519,248.521 215.5,247C 216.449,246.383 217.282,246.549 218,247.5C 218.635,245.382 219.469,243.382 220.5,241.5C 220.392,240.558 220.059,239.725 219.5,239C 221.387,238.837 222.887,239.671 224,241.5C 224.121,239.273 224.954,237.44 226.5,236C 224.819,234.055 224.152,232.055 224.5,230C 226.176,230.434 227.843,231.268 229.5,232.5C 231.996,231.42 234.33,230.086 236.5,228.5C 238.003,229.052 239.669,229.052 241.5,228.5C 241.5,227.5 241.5,226.5 241.5,225.5C 243.75,225.819 245.75,225.319 247.5,224C 246.185,222.605 246.519,221.605 248.5,221C 246.993,220.163 246.493,218.996 247,217.5C 248.145,218.636 249.312,219.636 250.5,220.5 Z"/></g>
<g><path style="opacity:1" fill="#6b132b" d="M 230.5,239.5 C 228.846,240.75 227.179,242.084 225.5,243.5C 224.704,237.829 226.37,236.496 230.5,239.5 Z"/></g>
<g><path style="opacity:1" fill="#5b1228" d="M 393.5,235.5 C 397.489,238.641 401.655,241.641 406,244.5C 406.494,246.134 406.66,247.801 406.5,249.5C 401.378,245.385 397.044,240.718 393.5,235.5 Z"/></g>
<g><path style="opacity:1" fill="#669090" d="M 315.5,248.5 C 314.609,247.89 313.609,247.557 312.5,247.5C 312.5,246.167 312.5,244.833 312.5,243.5C 316.33,243.496 317.33,245.162 315.5,248.5 Z"/></g>
<g><path style="opacity:1" fill="#dee9e9" d="M 312.5,247.5 C 313.609,247.557 314.609,247.89 315.5,248.5C 317.869,248.149 320.203,247.982 322.5,248C 329.409,253.827 333.075,261.327 333.5,270.5C 333.12,272.698 333.787,274.365 335.5,275.5C 336.925,276.922 337.925,278.589 338.5,280.5C 335.513,280.422 334.847,281.589 336.5,284C 336.241,285.261 335.574,286.261 334.5,287C 335.749,288.98 337.082,290.813 338.5,292.5C 338.595,294.786 339.262,296.786 340.5,298.5C 340.5,299.167 340.833,299.5 341.5,299.5C 340.213,302.698 339.547,306.031 339.5,309.5C 339.076,313.002 340.41,315.335 343.5,316.5C 344.234,317.708 344.567,319.041 344.5,320.5C 343.892,321.8 343.225,323.133 342.5,324.5C 343.046,326.135 343.38,327.801 343.5,329.5C 344.5,329.5 345.5,329.5 346.5,329.5C 347.6,330.605 348.267,331.938 348.5,333.5C 347.252,334.334 346.585,335.667 346.5,337.5C 346.511,339.045 346.844,340.378 347.5,341.5C 348.424,344.553 348.424,347.553 347.5,350.5C 346.674,352.548 347.341,354.215 349.5,355.5C 349.974,358.691 350.974,361.691 352.5,364.5C 352.235,367.283 351.902,369.949 351.5,372.5C 349.227,370.961 347.227,371.294 345.5,373.5C 347.022,375.156 346.689,376.323 344.5,377C 345.044,377.717 345.711,378.217 346.5,378.5C 347.027,380.643 347.027,382.643 346.5,384.5C 348.514,386.902 348.847,389.568 347.5,392.5C 345.695,393.237 344.029,394.237 342.5,395.5C 342.942,396.739 343.609,397.739 344.5,398.5C 343.665,399.943 342.332,400.943 340.5,401.5C 340.957,402.298 341.624,402.631 342.5,402.5C 342.62,405.205 341.62,405.872 339.5,404.5C 339.167,405.167 338.833,405.833 338.5,406.5C 339.046,408.135 339.38,409.801 339.5,411.5C 337.801,411.527 336.467,412.194 335.5,413.5C 333.916,414.382 332.249,415.215 330.5,416C 331.044,416.717 331.711,417.217 332.5,417.5C 332.421,418.93 332.754,420.264 333.5,421.5C 333.043,422.298 332.376,422.631 331.5,422.5C 331.44,421.957 331.107,421.624 330.5,421.5C 329.833,422.5 329.167,423.5 328.5,424.5C 327.197,423.282 326.197,423.615 325.5,425.5C 322.504,424.167 320.837,425.167 320.5,428.5C 320.134,429.695 319.301,430.361 318,430.5C 316.234,429.767 314.401,429.433 312.5,429.5C 310.29,428.649 308.29,427.316 306.5,425.5C 305.264,426.246 303.93,426.579 302.5,426.5C 302.737,425.209 302.404,424.209 301.5,423.5C 302.244,420.05 300.91,418.384 297.5,418.5C 297.47,415.148 296.137,412.482 293.5,410.5C 294.714,407.796 294.714,405.129 293.5,402.5C 294.234,401.292 294.567,399.959 294.5,398.5C 292.027,398.912 290.694,397.912 290.5,395.5C 291.103,393.374 291.103,391.041 290.5,388.5C 291.278,387.844 291.944,387.011 292.5,386C 290.943,383.045 289.276,380.212 287.5,377.5C 287.579,373.948 286.246,371.115 283.5,369C 284.448,368.517 285.448,368.351 286.5,368.5C 286.5,367.5 286.5,366.5 286.5,365.5C 287.369,363.283 287.702,360.95 287.5,358.5C 285.801,358.473 284.467,357.806 283.5,356.5C 283.5,355.833 283.167,355.5 282.5,355.5C 282.458,351.991 283.124,348.658 284.5,345.5C 285.167,341.5 283.5,339.833 279.5,340.5C 280.539,336.342 280.539,332.342 279.5,328.5C 280.686,326.126 280.686,323.792 279.5,321.5C 280.949,318.949 280.615,316.615 278.5,314.5C 279.356,311.721 280.023,308.888 280.5,306C 280.613,304.301 279.947,303.134 278.5,302.5C 278.5,300.833 278.5,299.167 278.5,297.5C 279.5,297.5 280.5,297.5 281.5,297.5C 281.02,294.995 280.02,292.662 278.5,290.5C 278.624,289.893 278.957,289.56 279.5,289.5C 280.434,288.432 280.768,287.099 280.5,285.5C 281.791,285.737 282.791,285.404 283.5,284.5C 285.406,281.052 284.739,278.219 281.5,276C 282.973,275.29 283.64,274.124 283.5,272.5C 284.5,272.5 285.5,272.5 286.5,272.5C 286.433,271.041 286.766,269.708 287.5,268.5C 288.833,268.5 290.167,268.5 291.5,268.5C 291.5,266.833 291.5,265.167 291.5,263.5C 292.5,263.5 293.5,263.5 294.5,263.5C 294.757,260.068 295.424,256.734 296.5,253.5C 296.402,250.752 297.402,250.086 299.5,251.5C 300.568,252.434 301.901,252.768 303.5,252.5C 303.5,250.833 303.5,249.167 303.5,247.5C 306.5,246.167 309.5,246.167 312.5,247.5 Z"/></g>
<g><path style="opacity:1" fill="#244545" d="M 303.5,247.5 C 303.5,249.167 303.5,250.833 303.5,252.5C 301.901,252.768 300.568,252.434 299.5,251.5C 303.135,251.344 303.468,250.178 300.5,248C 301.448,247.517 302.448,247.351 303.5,247.5 Z"/></g>
<g><path style="opacity:1" fill="#3b101f" d="M 217.5,252.5 C 218.404,253.209 218.737,254.209 218.5,255.5C 217.5,255.5 216.5,255.5 215.5,255.5C 215.737,256.791 215.404,257.791 214.5,258.5C 214.579,257.07 214.246,255.736 213.5,254.5C 214.651,253.269 215.817,253.269 217,254.5C 217.464,253.906 217.631,253.239 217.5,252.5 Z"/></g>
<g><path style="opacity:0.004" fill="#a81737" d="M 110.5,257.5 C 109.833,258.167 109.833,258.167 110.5,257.5 Z"/></g>
<g><path style="opacity:1" fill="#621229" d="M 214.5,258.5 C 213.167,258.833 211.833,259.167 210.5,259.5C 207.927,258.121 206.427,256.121 206,253.5C 208.056,256.548 210.889,258.214 214.5,258.5 Z"/></g>
<g><path style="opacity:0.011" fill="#a81737" d="M 112.5,259.5 C 112.5,260.167 112.5,260.833 112.5,261.5C 111.833,261.5 111.167,261.5 110.5,261.5C 109.34,259.797 110.007,259.131 112.5,259.5 Z"/></g>
<g><path style="opacity:1" fill="#172e2e" d="M 293.5,258.5 C 293.5,259.5 293.5,260.5 293.5,261.5C 291.901,261.232 290.568,261.566 289.5,262.5C 287.243,261.438 286.077,259.772 286,257.5C 288.199,260.969 290.699,261.302 293.5,258.5 Z"/></g>
<g><path style="opacity:1" fill="#659090" d="M 307.5,264.5 C 307.5,265.833 307.5,267.167 307.5,268.5C 306.5,268.5 305.5,268.5 304.5,268.5C 304.34,266.801 304.506,265.134 305,263.5C 305.671,264.252 306.504,264.586 307.5,264.5 Z"/></g>
<g><path style="opacity:1" fill="#020505" d="M 315.5,270.5 C 315.12,272.698 315.787,274.365 317.5,275.5C 317.932,276.71 318.599,277.71 319.5,278.5C 319.66,281.884 319.327,285.217 318.5,288.5C 318.916,290.715 320.25,292.049 322.5,292.5C 322.519,294.06 322.852,295.56 323.5,297C 322.978,297.95 322.311,298.784 321.5,299.5C 322.63,300.622 323.297,301.956 323.5,303.5C 322.706,306.528 324.039,308.528 327.5,309.5C 327.119,310.931 326.119,311.764 324.5,312C 326.527,313.396 326.86,315.062 325.5,317C 327.155,319.507 327.989,322.341 328,325.5C 330.008,326.764 331.175,328.597 331.5,331C 330.614,333.112 330.614,335.278 331.5,337.5C 330.448,337.351 329.448,337.517 328.5,338C 329.267,339.47 329.933,340.97 330.5,342.5C 330.185,345.211 330.852,347.544 332.5,349.5C 331.441,351.07 331.941,352.403 334,353.5C 334.595,354.899 334.428,356.232 333.5,357.5C 336.427,359.816 336.093,361.316 332.5,362C 334.252,365.185 334.585,368.352 333.5,371.5C 331.629,371.141 330.129,370.141 329,368.5C 328.832,370.841 329.999,372.174 332.5,372.5C 333.301,374.042 333.634,375.708 333.5,377.5C 331.807,378.853 330.474,380.52 329.5,382.5C 328.761,382.369 328.094,382.536 327.5,383C 328.869,384.719 329.869,386.552 330.5,388.5C 330.737,389.791 330.404,390.791 329.5,391.5C 328.583,394.321 326.916,396.654 324.5,398.5C 324.539,399.583 324.873,400.583 325.5,401.5C 324.675,402.386 323.675,402.719 322.5,402.5C 322.261,404.467 322.594,406.301 323.5,408C 321.423,408.192 319.423,408.692 317.5,409.5C 318.348,411.409 318.682,413.409 318.5,415.5C 318.167,415.5 317.833,415.5 317.5,415.5C 316.501,412.826 314.834,412.159 312.5,413.5C 312.56,411.303 312.227,408.969 311.5,406.5C 311.625,403.392 310.292,401.392 307.5,400.5C 306.966,396.434 306.966,392.434 307.5,388.5C 307.975,385.687 306.975,383.687 304.5,382.5C 304.167,381.833 303.833,381.167 303.5,380.5C 304.725,379.848 305.392,378.681 305.5,377C 305.486,375.615 305.152,374.449 304.5,373.5C 303.882,370.889 303.549,368.223 303.5,365.5C 302.358,360.618 301.025,355.951 299.5,351.5C 300.973,349.26 301.973,346.76 302.5,344C 300.937,343.241 299.937,342.074 299.5,340.5C 299.737,339.209 299.404,338.209 298.5,337.5C 298.167,336.5 297.5,335.833 296.5,335.5C 296.331,333.088 296.997,330.921 298.5,329C 298.43,328.235 298.097,327.735 297.5,327.5C 295.733,325.062 294.4,322.395 293.5,319.5C 292.883,317.771 291.883,316.271 290.5,315C 293.078,313.284 294.411,310.784 294.5,307.5C 294.784,305.585 294.451,303.919 293.5,302.5C 295.109,301.229 296.942,300.229 299,299.5C 299.74,298.251 299.573,297.251 298.5,296.5C 298.167,295.5 297.5,294.833 296.5,294.5C 297.091,293.849 297.757,293.182 298.5,292.5C 298.376,291.893 298.043,291.56 297.5,291.5C 297.5,290.167 297.5,288.833 297.5,287.5C 298.833,287.5 300.167,287.5 301.5,287.5C 301.5,284.833 301.5,282.167 301.5,279.5C 301.5,278.5 301.5,277.5 301.5,276.5C 302.5,276.5 303.5,276.5 304.5,276.5C 304.371,274.784 304.038,273.117 303.5,271.5C 304.11,270.609 304.443,269.609 304.5,268.5C 305.5,268.5 306.5,268.5 307.5,268.5C 307.5,267.167 307.5,265.833 307.5,264.5C 307.699,258.559 309.366,258.059 312.5,263C 313.448,263.483 314.448,263.649 315.5,263.5C 315.5,265.833 315.5,268.167 315.5,270.5 Z"/></g>
<g><path style="opacity:1" fill="#a8c2c2" d="M 296.5,253.5 C 295.424,256.734 294.757,260.068 294.5,263.5C 293.5,263.5 292.5,263.5 291.5,263.5C 291.5,265.167 291.5,266.833 291.5,268.5C 290.167,268.5 288.833,268.5 287.5,268.5C 287.5,267.5 287.5,266.5 287.5,265.5C 288.5,265.5 289.5,265.5 290.5,265.5C 290.737,264.209 290.404,263.209 289.5,262.5C 290.568,261.566 291.901,261.232 293.5,261.5C 293.5,260.5 293.5,259.5 293.5,258.5C 292.916,255.715 293.916,254.048 296.5,253.5 Z"/></g>
<g><path style="opacity:1" fill="#310e1c" d="M 211.5,262.5 C 212.404,263.209 212.737,264.209 212.5,265.5C 210.833,265.5 209.167,265.5 207.5,265.5C 207.951,269.104 206.951,272.104 204.5,274.5C 205.306,271.715 205.972,268.881 206.5,266C 205.076,260.55 206.409,260.05 210.5,264.5C 211.298,264.043 211.631,263.376 211.5,262.5 Z"/></g>
<g><path style="opacity:1" fill="#305555" d="M 315.5,270.5 C 318.833,270.5 320.5,272.167 320.5,275.5C 319.5,275.5 318.5,275.5 317.5,275.5C 315.787,274.365 315.12,272.698 315.5,270.5 Z"/></g>
<g><path style="opacity:1" fill="#426e6e" d="M 333.5,270.5 C 334.467,271.806 335.801,272.473 337.5,272.5C 337.715,274.179 337.048,275.179 335.5,275.5C 333.787,274.365 333.12,272.698 333.5,270.5 Z"/></g>
<g><path style="opacity:1" fill="#450f23" d="M 204.5,274.5 C 203.516,276.48 202.183,278.147 200.5,279.5C 200.439,277.408 199.439,275.908 197.5,275C 199.813,273.482 202.146,273.316 204.5,274.5 Z"/></g>
<g><path style="opacity:0.004" fill="#a81737" d="M 89.5,278.5 C 88.8333,277.167 88.8333,277.167 89.5,278.5 Z"/></g>
<g><path style="opacity:1" fill="#355c5c" d="M 303.5,271.5 C 304.038,273.117 304.371,274.784 304.5,276.5C 303.5,276.5 302.5,276.5 301.5,276.5C 301.5,277.5 301.5,278.5 301.5,279.5C 300.508,279.328 299.842,279.662 299.5,280.5C 298.833,280.167 298.167,279.833 297.5,279.5C 294.8,274.605 295.467,274.272 299.5,278.5C 301.136,276.216 302.469,273.882 303.5,271.5 Z"/></g>
<g><path style="opacity:1" fill="#471023" d="M 424.5,274.5 C 426.074,276.102 426.741,278.102 426.5,280.5C 423.28,279.491 422.614,277.491 424.5,274.5 Z"/></g>
<g><path style="opacity:1" fill="#8cafaf" d="M 297.5,279.5 C 298.167,279.833 298.833,280.167 299.5,280.5C 300.723,283.031 300.056,285.031 297.5,286.5C 297.297,284.956 296.63,283.622 295.5,282.5C 296.612,281.735 297.279,280.735 297.5,279.5 Z"/></g>
<g><path style="opacity:0.004" fill="#a81737" d="M 86.5,282.5 C 85.8333,281.167 85.8333,281.167 86.5,282.5 Z"/></g>
<g><path style="opacity:1" fill="#162c2c" d="M 301.5,279.5 C 301.5,282.167 301.5,284.833 301.5,287.5C 300.167,287.5 298.833,287.5 297.5,287.5C 297.5,287.167 297.5,286.833 297.5,286.5C 300.056,285.031 300.723,283.031 299.5,280.5C 299.842,279.662 300.508,279.328 301.5,279.5 Z"/></g>
<g><path style="opacity:1" fill="#451023" d="M 427.5,282.5 C 428.467,283.806 429.801,284.473 431.5,284.5C 431.371,286.216 431.038,287.883 430.5,289.5C 427.09,288.117 426.09,285.783 427.5,282.5 Z"/></g>
<g><path style="opacity:1" fill="#719a9a" d="M 283.5,284.5 C 282.791,285.404 281.791,285.737 280.5,285.5C 280.768,287.099 280.434,288.432 279.5,289.5C 279.5,287.833 279.5,286.167 279.5,284.5C 280.833,284.5 282.167,284.5 283.5,284.5 Z"/></g>
<g><path style="opacity:1" fill="#142020" d="M 338.5,280.5 C 337.957,281.742 337.623,283.075 337.5,284.5C 338.402,287.25 339.569,289.917 341,292.5C 341.497,294.81 341.663,297.143 341.5,299.5C 340.833,299.5 340.5,299.167 340.5,298.5C 340.946,295.99 340.28,293.99 338.5,292.5C 337.082,290.813 335.749,288.98 334.5,287C 335.574,286.261 336.241,285.261 336.5,284C 334.847,281.589 335.513,280.422 338.5,280.5 Z"/></g>
<g><path style="opacity:0.004" fill="#a81737" d="M 81.5,290.5 C 80.8333,289.167 80.8333,289.167 81.5,290.5 Z"/></g>
<g><path style="opacity:1" fill="#7da2a2" d="M 319.5,278.5 C 320.21,283.178 321.21,287.845 322.5,292.5C 320.25,292.049 318.916,290.715 318.5,288.5C 319.327,285.217 319.66,281.884 319.5,278.5 Z"/></g>
<g><path style="opacity:1" fill="#406b6b" d="M 297.5,291.5 C 298.043,291.56 298.376,291.893 298.5,292.5C 297.757,293.182 297.091,293.849 296.5,294.5C 295.188,293.855 294.188,292.855 293.5,291.5C 294.712,291.93 296.045,291.93 297.5,291.5 Z"/></g>
<g><path style="opacity:1" fill="#386363" d="M 338.5,292.5 C 340.28,293.99 340.946,295.99 340.5,298.5C 339.262,296.786 338.595,294.786 338.5,292.5 Z"/></g>
<g><path style="opacity:1" fill="#2d0f1a" d="M 197.5,293.5 C 195.072,296.018 193.405,299.018 192.5,302.5C 193.034,300.393 192.367,298.393 190.5,296.5C 192.512,294.659 194.845,293.659 197.5,293.5 Z"/></g>
<g><path style="opacity:1" fill="#81a5a5" d="M 298.5,296.5 C 299.573,297.251 299.74,298.251 299,299.5C 296.942,300.229 295.109,301.229 293.5,302.5C 291.013,301.21 291.347,300.21 294.5,299.5C 293.747,297.247 292.414,295.413 290.5,294C 291,293.833 291.5,293.667 292,293.5C 293.663,295.328 295.496,296.995 297.5,298.5C 298.298,298.043 298.631,297.376 298.5,296.5 Z"/></g>
<g><path style="opacity:1" fill="#380f1f" d="M 431.5,291.5 C 434.62,293.878 435.287,296.878 433.5,300.5C 432.802,298.333 431.469,296.5 429.5,295C 430.823,294.184 431.489,293.017 431.5,291.5 Z"/></g>
<g><path style="opacity:1" fill="#375a5a" d="M 293.5,302.5 C 294.451,303.919 294.784,305.585 294.5,307.5C 293.373,306.878 292.373,306.045 291.5,305C 292.756,304.583 293.423,303.75 293.5,302.5 Z"/></g>
<g><path style="opacity:1" fill="#601229" d="M 434.5,302.5 C 436.279,303.67 437.279,305.336 437.5,307.5C 436.209,307.263 435.209,307.596 434.5,308.5C 433.709,306.691 433.709,304.691 434.5,302.5 Z"/></g>
<g><path style="opacity:1" fill="#84a9a9" d="M 323.5,303.5 C 326.734,304.089 328.067,306.089 327.5,309.5C 324.039,308.528 322.706,306.528 323.5,303.5 Z"/></g>
<g><path style="opacity:1" fill="#430f23" d="M 193.5,306.5 C 193.86,308.345 193.86,310.345 193.5,312.5C 192.005,311.295 190.672,311.295 189.5,312.5C 188.957,312.44 188.624,312.107 188.5,311.5C 191.015,310.8 191.682,309.467 190.5,307.5C 191.325,306.614 192.325,306.281 193.5,306.5 Z"/></g>
<g><path style="opacity:1" fill="#4e7a7a" d="M 278.5,302.5 C 279.947,303.134 280.613,304.301 280.5,306C 280.023,308.888 279.356,311.721 278.5,314.5C 280.615,316.615 280.949,318.949 279.5,321.5C 278.5,320.833 277.5,320.167 276.5,319.5C 276.538,315.477 275.871,311.644 274.5,308C 276.838,306.838 278.172,305.004 278.5,302.5 Z"/></g>
<g><path style="opacity:1" fill="#6a9393" d="M 339.5,309.5 C 341.68,310.757 343.68,312.257 345.5,314C 344.944,315.011 344.278,315.844 343.5,316.5C 340.41,315.335 339.076,313.002 339.5,309.5 Z"/></g>
<g><path style="opacity:1" fill="#193030" d="M 276.5,319.5 C 277.5,320.167 278.5,320.833 279.5,321.5C 280.686,323.792 280.686,326.126 279.5,328.5C 275.913,326.333 274.913,323.333 276.5,319.5 Z"/></g>
<g><path style="opacity:0.008" fill="#a81737" d="M 53.5,325.5 C 52.8333,324.167 52.8333,324.167 53.5,325.5 Z"/></g>
<g><path style="opacity:1" fill="#1f3d3d" d="M 293.5,319.5 C 294.4,322.395 295.733,325.062 297.5,327.5C 294.6,327.592 292.933,326.259 292.5,323.5C 293.234,322.292 293.567,320.959 293.5,319.5 Z"/></g>
<g><path style="opacity:1" fill="#2e5050" d="M 344.5,320.5 C 347.287,322.205 346.954,323.372 343.5,324C 345.607,325.264 346.607,327.097 346.5,329.5C 345.5,329.5 344.5,329.5 343.5,329.5C 343.38,327.801 343.046,326.135 342.5,324.5C 343.225,323.133 343.892,321.8 344.5,320.5 Z"/></g>
<g><path style="opacity:1" fill="#83a9a9" d="M 292.5,323.5 C 292.933,326.259 294.6,327.592 297.5,327.5C 297.5,328.833 296.833,329.5 295.5,329.5C 293.025,328.313 292.025,326.313 292.5,323.5 Z"/></g>
<g><path style="opacity:1" fill="#2f5353" d="M 297.5,327.5 C 298.097,327.735 298.43,328.235 298.5,329C 296.997,330.921 296.331,333.088 296.5,335.5C 295.539,333.735 295.205,331.735 295.5,329.5C 296.833,329.5 297.5,328.833 297.5,327.5 Z"/></g>
<g><path style="opacity:1" fill="#1d3737" d="M 279.5,328.5 C 280.539,332.342 280.539,336.342 279.5,340.5C 278.649,338.29 277.316,336.29 275.5,334.5C 275.667,334.167 275.833,333.833 276,333.5C 276.689,334.357 277.522,335.023 278.5,335.5C 279.474,333.257 279.808,330.924 279.5,328.5 Z"/></g>
<g><path style="opacity:1" fill="#376161" d="M 348.5,333.5 C 347.612,336.054 347.279,338.721 347.5,341.5C 346.844,340.378 346.511,339.045 346.5,337.5C 346.585,335.667 347.252,334.334 348.5,333.5 Z"/></g>
<g><path style="opacity:1" fill="#416a6a" d="M 298.5,337.5 C 299.404,338.209 299.737,339.209 299.5,340.5C 298.209,340.263 297.209,340.596 296.5,341.5C 292.422,337.997 292.589,337.33 297,339.5C 298.03,339.164 298.53,338.497 298.5,337.5 Z"/></g>
<g><path style="opacity:1" fill="#1a2c2c" d="M 299.5,340.5 C 299.937,342.074 300.937,343.241 302.5,344C 301.973,346.76 300.973,349.26 299.5,351.5C 297.013,350.21 297.347,349.21 300.5,348.5C 297.453,347.125 296.12,344.792 296.5,341.5C 297.209,340.596 298.209,340.263 299.5,340.5 Z"/></g>
<g><path style="opacity:1" fill="#861430" d="M 189.5,334.5 C 189.082,335.222 188.416,335.722 187.5,336C 190.964,338.926 191.297,342.093 188.5,345.5C 187.067,344.167 185.733,342.667 184.5,341C 188.095,341.613 188.429,340.446 185.5,337.5C 186.077,335.45 187.41,334.45 189.5,334.5 Z"/></g>
<g><path style="opacity:1" fill="#88adad" d="M 279.5,341.5 C 279.5,341.167 279.5,340.833 279.5,340.5C 283.5,339.833 285.167,341.5 284.5,345.5C 282.225,344.889 280.559,343.555 279.5,341.5 Z"/></g>
<g><path style="opacity:1" fill="#264848" d="M 279.5,341.5 C 280.559,343.555 282.225,344.889 284.5,345.5C 283.124,348.658 282.458,351.991 282.5,355.5C 281.507,350.929 280.507,346.262 279.5,341.5 Z"/></g>
<g><path style="opacity:1" fill="#446f6f" d="M 330.5,342.5 C 331.62,344.124 332.953,345.624 334.5,347C 334.361,348.301 333.695,349.134 332.5,349.5C 330.852,347.544 330.185,345.211 330.5,342.5 Z"/></g>
<g><path style="opacity:1" fill="#1c3333" d="M 347.5,341.5 C 349.943,344.052 351.61,347.052 352.5,350.5C 351.209,350.263 350.209,350.596 349.5,351.5C 348.833,351.167 348.167,350.833 347.5,350.5C 348.424,347.553 348.424,344.553 347.5,341.5 Z"/></g>
<g><path style="opacity:1" fill="#729b9b" d="M 347.5,350.5 C 348.167,350.833 348.833,351.167 349.5,351.5C 349.5,352.833 349.5,354.167 349.5,355.5C 347.341,354.215 346.674,352.548 347.5,350.5 Z"/></g>
<g><path style="opacity:1" fill="#92b3b3" d="M 283.5,356.5 C 284.467,357.806 285.801,358.473 287.5,358.5C 287.702,360.95 287.369,363.283 286.5,365.5C 284.145,363.077 283.145,360.077 283.5,356.5 Z"/></g>
<g><path style="opacity:1" fill="#345b5b" d="M 299.5,351.5 C 301.025,355.951 302.358,360.618 303.5,365.5C 302.504,365.586 301.671,365.252 301,364.5C 300.772,360.083 300.272,355.75 299.5,351.5 Z"/></g>
<g><path style="opacity:1" fill="#581128" d="M 436.5,366.5 C 437.407,369.183 436.74,371.517 434.5,373.5C 432.566,370.378 433.233,368.045 436.5,366.5 Z"/></g>
<g><path style="opacity:1" fill="#264444" d="M 333.5,371.5 C 333.5,372.167 333.167,372.5 332.5,372.5C 329.999,372.174 328.832,370.841 329,368.5C 330.129,370.141 331.629,371.141 333.5,371.5 Z"/></g>
<g><path style="opacity:1" fill="#8baeae" d="M 351.5,372.5 C 351.737,373.791 351.404,374.791 350.5,375.5C 348.381,375.468 347.048,376.468 346.5,378.5C 345.711,378.217 345.044,377.717 344.5,377C 346.689,376.323 347.022,375.156 345.5,373.5C 347.227,371.294 349.227,370.961 351.5,372.5 Z"/></g>
<g><path style="opacity:1" fill="#386161" d="M 350.5,375.5 C 350.082,376.222 349.416,376.722 348.5,377C 351.241,380.289 350.575,382.789 346.5,384.5C 347.027,382.643 347.027,380.643 346.5,378.5C 347.048,376.468 348.381,375.468 350.5,375.5 Z"/></g>
<g><path style="opacity:1" fill="#5b7f7f" d="M 304.5,373.5 C 305.152,374.449 305.486,375.615 305.5,377C 305.392,378.681 304.725,379.848 303.5,380.5C 303.062,380.565 302.728,380.399 302.5,380C 303.308,379.692 303.975,379.192 304.5,378.5C 303.465,376.872 303.465,375.205 304.5,373.5 Z"/></g>
<g><path style="opacity:1" fill="#294d4d" d="M 333.5,377.5 C 334.678,379.338 334.345,381.005 332.5,382.5C 331.5,382.5 330.5,382.5 329.5,382.5C 330.474,380.52 331.807,378.853 333.5,377.5 Z"/></g>
<g><path style="opacity:1" fill="#87abab" d="M 329.5,382.5 C 330.5,382.5 331.5,382.5 332.5,382.5C 332.539,383.583 332.873,384.583 333.5,385.5C 332.007,386.141 331.007,387.141 330.5,388.5C 329.869,386.552 328.869,384.719 327.5,383C 328.094,382.536 328.761,382.369 329.5,382.5 Z"/></g>
<g><path style="opacity:1" fill="#739c9c" d="M 304.5,382.5 C 306.975,383.687 307.975,385.687 307.5,388.5C 306.504,388.586 305.671,388.252 305,387.5C 304.506,385.866 304.34,384.199 304.5,382.5 Z"/></g>
<g><path style="opacity:1" fill="#192f2f" d="M 287.5,377.5 C 289.276,380.212 290.943,383.045 292.5,386C 291.944,387.011 291.278,387.844 290.5,388.5C 287.91,386.4 286.576,383.566 286.5,380C 286.528,378.93 286.861,378.097 287.5,377.5 Z"/></g>
<g><path style="opacity:1" fill="#2c5252" d="M 347.5,392.5 C 347.519,394.06 347.852,395.56 348.5,397C 347.352,398.726 346.185,398.559 345,396.5C 344.536,397.094 344.369,397.761 344.5,398.5C 343.609,397.739 342.942,396.739 342.5,395.5C 344.029,394.237 345.695,393.237 347.5,392.5 Z"/></g>
<g><path style="opacity:1" fill="#3f6767" d="M 329.5,391.5 C 329.5,393.833 329.5,396.167 329.5,398.5C 328.167,398.5 326.833,398.5 325.5,398.5C 325.167,398.5 324.833,398.5 324.5,398.5C 326.916,396.654 328.583,394.321 329.5,391.5 Z"/></g>
<g><path style="opacity:1" fill="#396262" d="M 290.5,395.5 C 290.694,397.912 292.027,398.912 294.5,398.5C 294.567,399.959 294.234,401.292 293.5,402.5C 289.666,401.273 288.666,398.94 290.5,395.5 Z"/></g>
<g><path style="opacity:1" fill="#223c3c" d="M 344.5,398.5 C 345.267,399.172 345.934,400.005 346.5,401C 344.942,401.21 343.609,401.71 342.5,402.5C 341.624,402.631 340.957,402.298 340.5,401.5C 342.332,400.943 343.665,399.943 344.5,398.5 Z"/></g>
<g><path style="opacity:1" fill="#78a0a0" d="M 307.5,400.5 C 310.292,401.392 311.625,403.392 311.5,406.5C 308.708,405.608 307.375,403.608 307.5,400.5 Z"/></g>
<g><path style="opacity:1" fill="#172b2b" d="M 324.5,398.5 C 324.833,398.5 325.167,398.5 325.5,398.5C 327.168,400.479 327.834,402.812 327.5,405.5C 326.178,405.67 325.011,405.337 324,404.5C 324.476,406.32 324.309,407.987 323.5,409.5C 322.533,410.806 321.199,411.473 319.5,411.5C 319.5,412.5 319.5,413.5 319.5,414.5C 319.5,415.167 319.167,415.5 318.5,415.5C 318.682,413.409 318.348,411.409 317.5,409.5C 319.423,408.692 321.423,408.192 323.5,408C 322.594,406.301 322.261,404.467 322.5,402.5C 323.675,402.719 324.675,402.386 325.5,401.5C 324.873,400.583 324.539,399.583 324.5,398.5 Z"/></g>
<g><path style="opacity:1" fill="#477070" d="M 323.5,409.5 C 323.5,410.5 323.5,411.5 323.5,412.5C 321.801,412.527 320.467,413.194 319.5,414.5C 319.5,413.5 319.5,412.5 319.5,411.5C 321.199,411.473 322.533,410.806 323.5,409.5 Z"/></g>
<g><path style="opacity:1" fill="#6d9494" d="M 293.5,410.5 C 296.137,412.482 297.47,415.148 297.5,418.5C 300.91,418.384 302.244,420.05 301.5,423.5C 298.58,421.738 296.08,419.404 294,416.5C 293.505,414.527 293.338,412.527 293.5,410.5 Z"/></g>
<g><path style="opacity:1" fill="#345c5c" d="M 317.5,415.5 C 315.079,418.136 313.412,417.469 312.5,413.5C 314.834,412.159 316.501,412.826 317.5,415.5 Z"/></g>
<g><path style="opacity:1" fill="#7ba2a2" d="M 335.5,413.5 C 335.433,414.959 335.766,416.292 336.5,417.5C 336.631,418.376 336.298,419.043 335.5,419.5C 334.482,418.807 333.482,418.141 332.5,417.5C 331.711,417.217 331.044,416.717 330.5,416C 332.249,415.215 333.916,414.382 335.5,413.5 Z"/></g>
<g><path style="opacity:1" fill="#264747" d="M 332.5,417.5 C 333.482,418.141 334.482,418.807 335.5,419.5C 336.298,419.043 336.631,418.376 336.5,417.5C 337.404,418.209 337.737,419.209 337.5,420.5C 336.5,420.5 335.5,420.5 334.5,420.5C 334.5,421.5 334.5,422.5 334.5,423.5C 333.209,423.737 332.209,423.404 331.5,422.5C 332.376,422.631 333.043,422.298 333.5,421.5C 332.754,420.264 332.421,418.93 332.5,417.5 Z"/></g>
<g><path style="opacity:1" fill="#63122a" d="M 214.5,417.5 C 214.821,419.048 215.821,419.715 217.5,419.5C 217.5,420.5 217.5,421.5 217.5,422.5C 214.179,421.902 213.179,420.235 214.5,417.5 Z"/></g>
<g><path style="opacity:1" fill="#82a7a7" d="M 301.5,423.5 C 302.404,424.209 302.737,425.209 302.5,426.5C 303.93,426.579 305.264,426.246 306.5,425.5C 308.29,427.316 310.29,428.649 312.5,429.5C 311.07,429.421 309.736,429.754 308.5,430.5C 306.705,428.297 304.371,427.131 301.5,427C 300.829,426.014 300.829,424.847 301.5,423.5 Z"/></g>
<g><path style="opacity:1" fill="#376060" d="M 331.5,422.5 C 330.596,423.209 330.263,424.209 330.5,425.5C 327.5,425.167 326.167,426.5 326.5,429.5C 324.5,429.167 322.5,428.833 320.5,428.5C 320.837,425.167 322.504,424.167 325.5,425.5C 326.197,423.615 327.197,423.282 328.5,424.5C 329.167,423.5 329.833,422.5 330.5,421.5C 331.107,421.624 331.44,421.957 331.5,422.5 Z"/></g>
<g><path style="opacity:1" fill="#350f1e" d="M 392.5,440.5 C 391.766,441.708 391.433,443.041 391.5,444.5C 388.789,444.185 386.456,444.852 384.5,446.5C 384.5,445.5 384.5,444.5 384.5,443.5C 386.167,443.5 387.833,443.5 389.5,443.5C 389.5,442.5 389.5,441.5 389.5,440.5C 390.5,440.5 391.5,440.5 392.5,440.5 Z"/></g>
<g><path style="opacity:1" fill="#340e1e" d="M 232.5,437.5 C 236.127,439.794 239.461,442.46 242.5,445.5C 238.72,447.072 236.72,445.738 236.5,441.5C 235.127,441.657 233.793,441.49 232.5,441C 233.684,439.855 233.684,438.688 232.5,437.5 Z"/></g>
<g><path style="opacity:1" fill="#72132d" d="M 379.5,450.5 C 379.082,451.222 378.416,451.722 377.5,452C 378.337,453.011 378.67,454.178 378.5,455.5C 376.856,455.714 375.356,455.38 374,454.5C 373.722,455.416 373.222,456.082 372.5,456.5C 372.5,454.833 372.5,453.167 372.5,451.5C 374.806,451.007 377.139,450.674 379.5,450.5 Z"/></g>
<g><path style="opacity:1" fill="#501126" d="M 372.5,456.5 C 370.784,457.971 368.784,458.971 366.5,459.5C 366.703,457.61 366.037,456.11 364.5,455C 367.112,455.359 369.779,455.859 372.5,456.5 Z"/></g>
<g><path style="opacity:1" fill="#7a132f" d="M 255.5,456.5 C 259.163,456.952 262.83,457.452 266.5,458C 268.607,459.264 269.607,461.097 269.5,463.5C 267.519,461.856 265.519,460.19 263.5,458.5C 262.707,458.931 261.873,459.265 261,459.5C 259.142,458.394 257.308,457.394 255.5,456.5 Z"/></g>
<g><path style="opacity:1" fill="#67122b" d="M 365.5,459.5 C 363.321,460.677 360.987,461.677 358.5,462.5C 359.499,458.502 361.832,457.502 365.5,459.5 Z"/></g>
<g><path style="opacity:1" fill="#5b1228" d="M 277.5,464.5 C 279.698,464.12 281.365,464.787 282.5,466.5C 280.302,466.88 278.635,466.213 277.5,464.5 Z"/></g>
<g><path style="opacity:0.702" fill="#a81737" d="M 456.5,534.5 C 455.167,534.833 455.167,535.167 456.5,535.5C 458.865,537.087 461.365,539.42 464,542.5C 464.684,543.784 464.517,544.951 463.5,546C 468.631,551.036 468.631,556.036 463.5,561C 460.901,560.801 458.401,559.967 456,558.5C 452.868,561.456 450.868,560.79 450,556.5C 447.081,552.911 443.581,550.078 439.5,548C 439.833,547.667 440.167,547.333 440.5,547C 438.041,546.276 437.041,544.943 437.5,543C 432.563,541.065 429.397,537.565 428,532.5C 423.926,527.892 420.093,523.225 416.5,518.5C 418.933,518.214 418.933,517.548 416.5,516.5C 416.5,515.833 416.167,515.5 415.5,515.5C 413.666,513.495 411.999,511.328 410.5,509C 411.996,508.493 413.163,508.993 414,510.5C 414.692,509.975 415.192,509.308 415.5,508.5C 413.896,507.397 412.896,505.897 412.5,504C 413.354,503.426 414.354,502.759 415.5,502C 415.355,501.228 415.022,500.561 414.5,500C 415.872,499.598 417.205,499.098 418.5,498.5C 422.746,500.791 427.079,502.791 431.5,504.5C 433.455,507.318 435.288,510.318 437,513.5C 439.5,515.333 442,517.167 444.5,519C 446.5,521.667 448.5,524.333 450.5,527C 453.102,527.883 455.269,529.383 457,531.5C 457.47,532.577 457.303,533.577 456.5,534.5 Z"/></g>
<g><path style="opacity:0.639" fill="#a81737" d="M 183.5,512.5 C 183.393,510.621 183.893,510.288 185,511.5C 185.317,509.699 185.984,509.366 187,510.5C 188.255,509.789 189.421,508.956 190.5,508C 188.993,507.163 188.493,505.996 189,504.5C 191.149,506.661 193.649,507.828 196.5,508C 194.875,507.147 194.542,506.147 195.5,505C 193.699,503.613 193.032,502.113 193.5,500.5C 197.98,503.484 202.146,506.817 206,510.5C 205.859,512.462 206.026,514.296 206.5,516C 205.337,517.855 203.67,519.189 201.5,520C 200.216,520.684 199.049,520.517 198,519.5C 196.643,521.655 196.476,523.822 197.5,526C 193.668,529.665 190.501,533.832 188,538.5C 185.696,540.068 183.196,541.235 180.5,542C 181.517,543.049 181.684,544.216 181,545.5C 178.131,548.444 174.964,550.944 171.5,553C 173.037,554.11 173.703,555.61 173.5,557.5C 169.15,556.624 164.984,557.29 161,559.5C 158.883,558.623 156.716,558.456 154.5,559C 152.651,557.907 150.984,556.574 149.5,555C 149.833,554.667 150.167,554.333 150.5,554C 148.316,551.984 146.316,549.817 144.5,547.5C 147.028,546.483 147.028,545.316 144.5,544C 146.254,541.173 148.088,541.006 150,543.5C 150.24,541.023 149.406,538.856 147.5,537C 149.678,536.835 151.511,537.668 153,539.5C 153.14,537.744 152.64,536.078 151.5,534.5C 153.973,532.902 153.973,531.402 151.5,530C 154.396,531.279 157.396,532.279 160.5,533C 158.102,531.364 156.935,529.198 157,526.5C 158.333,525.167 159.667,525.167 161,526.5C 162.667,525.5 164,524.167 165,522.5C 166,523.5 167,524.5 168,525.5C 168.756,523.191 168.256,521.191 166.5,519.5C 166.833,519.167 167.167,518.833 167.5,518.5C 169.799,519.635 171.966,520.968 174,522.5C 173.513,520.956 173.013,519.29 172.5,517.5C 174.109,517.906 175.443,517.906 176.5,517.5C 172.651,511.851 173.318,511.351 178.5,516C 179.5,516.667 180.5,516.667 181.5,516C 175.671,509.47 176.338,508.304 183.5,512.5 Z M 183.5,512.5 C 184.289,512.783 184.956,513.283 185.5,514C 184.184,514.528 183.517,514.028 183.5,512.5 Z M 158.5,527.5 C 159.5,527.833 160.167,528.5 160.5,529.5C 159.167,529.5 158.5,528.833 158.5,527.5 Z M 153.5,534.5 C 154.5,534.833 155.167,535.5 155.5,536.5C 154.167,536.5 153.5,535.833 153.5,534.5 Z"/></g>
<g><path style="opacity:0.015" fill="#a81737" d="M 415.5,515.5 C 416.167,515.5 416.5,515.833 416.5,516.5C 416.5,517.167 416.5,517.833 416.5,518.5C 413.783,517.322 413.45,516.322 415.5,515.5 Z"/></g>
<g><path style="opacity:0.64" fill="#a81737" d="M 294.5,582.5 C 295.239,582.631 295.906,582.464 296.5,582C 295.896,579.532 294.562,577.532 292.5,576C 296.047,573.378 296.047,571.045 292.5,569C 296.187,567.076 297.187,564.243 295.5,560.5C 295.855,559.478 296.522,558.811 297.5,558.5C 297.5,557.833 297.5,557.167 297.5,556.5C 298.289,556.217 298.956,555.717 299.5,555C 297.612,553.05 296.446,550.883 296,548.5C 297.133,550.211 298.633,550.711 300.5,550C 297.515,545.283 298.348,544.45 303,547.5C 302.06,545.179 300.56,543.012 298.5,541C 299.577,540.53 300.577,540.697 301.5,541.5C 302.757,539.632 302.424,537.965 300.5,536.5C 301.685,535.147 303.019,533.98 304.5,533C 303.643,532.311 302.977,531.478 302.5,530.5C 301.962,528.277 302.629,526.277 304.5,524.5C 305.939,525.509 307.272,525.176 308.5,523.5C 307.674,522.549 307.508,521.549 308,520.5C 310.772,523.125 313.606,525.625 316.5,528C 315.521,529.779 315.854,531.445 317.5,533C 316.622,534.555 316.622,536.221 317.5,538C 317.561,539.711 316.894,541.044 315.5,542C 316.734,545.557 318.734,548.557 321.5,551C 321.241,552.261 320.574,553.261 319.5,554C 320.833,557 320.833,560 319.5,563C 320.574,563.739 321.241,564.739 321.5,566C 321.131,569.448 321.131,572.781 321.5,576C 320.932,577.872 320.265,579.705 319.5,581.5C 321.592,583.789 321.926,586.289 320.5,589C 319.216,589.684 318.049,589.517 317,588.5C 315.285,593.091 313.285,597.091 311,600.5C 309.597,598.802 307.764,598.302 305.5,599C 304.874,598.25 304.374,597.416 304,596.5C 302.667,597.833 301.333,597.833 300,596.5C 299.383,595.551 299.549,594.718 300.5,594C 299.069,593.535 297.903,592.701 297,591.5C 295.855,588.568 295.022,585.568 294.5,582.5 Z M 304.5,530.5 C 305.833,530.5 306.5,531.167 306.5,532.5C 305.5,532.167 304.833,531.5 304.5,530.5 Z M 306.5,532.5 C 308.028,532.517 308.528,533.184 308,534.5C 307.283,533.956 306.783,533.289 306.5,532.5 Z M 301.5,541.5 C 303.028,541.517 303.528,542.184 303,543.5C 302.283,542.956 301.783,542.289 301.5,541.5 Z M 297.5,558.5 C 298.5,558.833 299.167,559.5 299.5,560.5C 298.167,560.5 297.5,559.833 297.5,558.5 Z"/></g>
<g><path style="opacity:0.01" fill="#a81737" d="M 304.5,524.5 C 302.972,524.483 302.472,523.816 303,522.5C 303.717,523.044 304.217,523.711 304.5,524.5 Z"/></g>
<g><path style="opacity:0.004" fill="#a81737" d="M 456.5,534.5 C 457.833,535.167 457.833,535.167 456.5,534.5 Z"/></g>
<g><path style="opacity:0.004" fill="#a81737" d="M 297.5,556.5 C 296.833,555.167 296.833,555.167 297.5,556.5 Z"/></g>
<g><path style="opacity:0.008" fill="#a81737" d="M 294.5,582.5 C 293.833,581.167 293.833,581.167 294.5,582.5 Z"/></g>
</svg>
